<svg xmlns="http://www.w3.org/2000/svg" width="57.593" height="58.307"><g data-name="#282828ff"><path data-name="Path 5210" d="M.474.876A1.755 1.755 0 0 1 1.624.56h6.237a1.711 1.711 0 0 1 1.175.35 1.622 1.622 0 0 1 .446 1.235v17.161a1.327 1.327 0 0 0 .168.9.88.88 0 0 0 .71.251h12.539a.956.956 0 0 0 .62-.156.842.842 0 0 0 .255-.677V2.084a1.508 1.508 0 0 1 .477-1.2A1.758 1.758 0 0 1 25.4.56h6.237a1.72 1.72 0 0 1 1.177.348 1.558 1.558 0 0 1 .446 1.174v18.726a.527.527 0 0 1-.058.25q-7.1 12.3-14.206 24.605c-.406.675-.761 1.381-1.2 2.034.889-2.132 1.82-4.247 2.724-6.373q1.592-3.711 3.18-7.424a1.654 1.654 0 0 0 .069-.68v-3.684a.882.882 0 0 0-.242-.689 1.154 1.154 0 0 0-.691-.18H10.475a1.272 1.272 0 0 0-.747.185.744.744 0 0 0-.251.621v17.413a1.737 1.737 0 0 1-.368 1.192 1.608 1.608 0 0 1-1.19.431H1.557a1.658 1.658 0 0 1-1.167-.391 1.76 1.76 0 0 1-.39-.767V1.688A1.651 1.651 0 0 1 .474.876z" transform="translate(0 -.56)" style="fill:#55aad4"/><path data-name="Path 5211" d="M481.37 168.73c.412-.691.786-1.405 1.222-2.081-.108.334-.27.647-.4.972q-2.37 5.523-4.742 11.045a.358.358 0 0 0-.026.311c1 2.44 2.015 4.871 3 7.316q.263.008.527 0c.427-1.107.885-2.2 1.325-3.3q3.062-7.606 6.13-15.208a2.111 2.111 0 0 1 .722-.9 1.644 1.644 0 0 1 .95-.261h7.548a2.408 2.408 0 0 1 1.015.134 1.111 1.111 0 0 1 .545.6v.5c-1.054 2.276-2.146 4.534-3.214 6.8q-5.283 11.134-10.56 22.27a2.027 2.027 0 0 0-.057.729v14.539c0 .374.014.751-.021 1.124a1.355 1.355 0 0 1-.451.925 1.782 1.782 0 0 1-.771.322h-7.043a1.4 1.4 0 0 1-1.2-1.619v-15.73a.822.822 0 0 0-.088-.371q-2.4-5.053-4.8-10.112 5.184-9.008 10.389-18.005z" transform="translate(-441.592 -156.258)" style="fill:#f4a947"/></g></svg>