<svg xmlns="http://www.w3.org/2000/svg" width="60.08" height="60.974"><path d="M35.256 60.974a.894.894 0 0 1-.893-.893v-6.9a.893.893 0 1 1 1.786 0v1.876l2.839 2.843a2.093 2.093 0 0 0 1.489.62h.08a2.1 2.1 0 0 0 1.525-.723l3.682-4.213a.893.893 0 0 1 1.26-.083.892.892 0 0 1 .086 1.26l-3.684 4.212a3.908 3.908 0 0 1-5.7.193l-1.577-1.575v2.5a.894.894 0 0 1-.893.883zm-25.326 0a.894.894 0 0 1-.894-.893v-6.9a.893.893 0 0 1 1.787 0v6.9a.894.894 0 0 1-.892.893zm-9.038 0A.894.894 0 0 1 0 60.082V45.426a8.021 8.021 0 0 1 6.113-7.8l7.416-1.829a1.487 1.487 0 0 0 1.132-1.446V33.1a11.05 11.05 0 0 1-5.192-9.39v-.388h-.361a3.214 3.214 0 0 1-2.294-.974 3.241 3.241 0 0 1 .124-4.721 2.859 2.859 0 0 1-.368-2.569A2.826 2.826 0 0 1 8.092 13.4l.28-.121V6.852A6.86 6.86 0 0 1 15.226 0h10.658a6.86 6.86 0 0 1 6.853 6.852v6.431l.065.027.218.094a2.83 2.83 0 0 1 1.523 1.66 2.9 2.9 0 0 1-.37 2.568A3.265 3.265 0 0 1 32 23.327h-.358v.388a11.092 11.092 0 0 1-5.194 9.394v1.055a1.512 1.512 0 0 0 1.274 1.5c.92.152 3.32.545 4.609.756l.289.047a9.376 9.376 0 0 1 6.713 4.8l2.85 5.32 8.993-10.257V10.359a1.375 1.375 0 0 1 1.372-1.372 1.375 1.375 0 0 1 .862.309l5.99 4.865a1.853 1.853 0 0 1 0 2.876l-6.432 5.227v12.767a4.544 4.544 0 0 1 5.1 7.192l-8.21 9.389a.893.893 0 0 1-1.344-1.175l4.981-5.7-.006-.005h-.006l-3.883-3.89-6.12 6.978a1.738 1.738 0 0 1-2.838-.326l-2.882-5.383a7.59 7.59 0 0 0-5.429-3.883l-3.346-.549a9.745 9.745 0 0 1-16.7.258l-5.744 1.419a6.239 6.239 0 0 0-4.755 6.07v14.656a.894.894 0 0 1-.893.892zm53.765-24.485a2.746 2.746 0 0 0-2.065.938L50.776 39.5l3.9 3.9 2.05-2.345a2.731 2.731 0 0 0 .657-2.039 2.762 2.762 0 0 0-1.008-1.917 2.721 2.721 0 0 0-1.718-.61zm-38.209-2.473a3.323 3.323 0 0 1-2.32 3.461 7.959 7.959 0 0 0 12.951-.129 3.285 3.285 0 0 1-2.417-3.327 11.117 11.117 0 0 1-8.214 0zm4.108-17.558a24.926 24.926 0 0 0-9.3 1.788v5.469a9.3 9.3 0 1 0 18.6 0v-5.469a24.928 24.928 0 0 0-9.3-1.788zm11.086 2.373v2.711h.352a1.458 1.458 0 0 0 1.038-.441 1.477 1.477 0 0 0 .437-1.044 1.5 1.5 0 0 0-.831-1.332 2.839 2.839 0 0 1-.795.113c-.065 0-.133-.002-.201-.007zm-23.173-.1a1.484 1.484 0 0 0 .648 2.815h.351v-2.71a2.556 2.556 0 0 1-.2.008 2.868 2.868 0 0 1-.799-.117zm44.494-7.492v8.728l5.307-4.312a.064.064 0 0 0 .02-.054.06.06 0 0 0-.02-.049zm-32.417 3.5a27.044 27.044 0 0 1 10.873 2.23 1.043 1.043 0 0 0 .422.09 1.08 1.08 0 0 0 .951-.585 1.054 1.054 0 0 0-.5-1.434 29 29 0 0 0-3.9-1.405.893.893 0 1 1 .484-1.719c.689.193 1.386.416 2.072.663V6.852a5.072 5.072 0 0 0-5.066-5.066H15.226a5.072 5.072 0 0 0-5.066 5.066v5.723a30.694 30.694 0 0 1 14.54-1.531.893.893 0 0 1-.119 1.778.9.9 0 0 1-.121-.008 29.073 29.073 0 0 0-3.908-.265 28.758 28.758 0 0 0-11.735 2.487 1.044 1.044 0 0 0-.558.617 1.032 1.032 0 0 0 .062.82 1.083 1.083 0 0 0 .952.58 1.03 1.03 0 0 0 .419-.089 26.961 26.961 0 0 1 10.854-2.229zm.007 14.575H20.5a4.994 4.994 0 0 1-2.344-.615.893.893 0 1 1 .859-1.566 3.226 3.226 0 0 0 1.5.394h.027a3.215 3.215 0 0 0 1.544-.395.893.893 0 0 1 .86 1.566 5.138 5.138 0 0 1-2.393.611zm4.92-6.27a.894.894 0 0 1-.893-.893v-1.972a.893.893 0 1 1 1.786 0v1.968a.894.894 0 0 1-.893.892zm-9.836 0a.894.894 0 0 1-.893-.893v-1.972a.893.893 0 1 1 1.786 0v1.968a.894.894 0 0 1-.892.892z" style="fill:#f4a947"/></svg>