<svg xmlns="http://www.w3.org/2000/svg" width="27.425" height="20.482"><defs><style>.cls-1{fill:#545454}</style></defs><g id="menu"><g id="Menu_1_"><path id="Path_160" data-name="Path 160" class="cls-1" d="M.857 97.759h25.711a.764.764 0 1 0 0-1.516H.857a.764.764 0 1 0 0 1.516z" transform="translate(0 -89.921)"/><path id="Path_161" data-name="Path 161" class="cls-1" d="M26.568 180.455H.857a.764.764 0 1 0 0 1.516h25.711a.764.764 0 1 0 0-1.516z" transform="translate(0 -167.811)"/><path id="Path_162" data-name="Path 162" class="cls-1" d="M138.3 264.667h-17.14a.764.764 0 1 0 0 1.516h17.14a.764.764 0 1 0 0-1.516z" transform="translate(-111.733 -245.701)"/><path id="Path_166" data-name="Path 166" class="cls-1" d="M.857 97.759h25.711a.764.764 0 1 0 0-1.516H.857a.764.764 0 1 0 0 1.516z" transform="translate(0 -96.243)"/></g></g></svg>