<svg id="Group" xmlns="http://www.w3.org/2000/svg" width="44.042" height="50.812"><defs><style>.cls-1{fill:#f4a947}</style></defs><path id="Path" class="cls-1" d="M3.388 3.388a1.693 1.693 0 0 1 1.693 1.693.847.847 0 0 0 1.695 0 3.39 3.39 0 0 0-2.541-3.267V.847a.847.847 0 0 0-1.695 0v.967a3.381 3.381 0 0 0 .847 6.655 1.693 1.693 0 1 1-1.693 1.693.847.847 0 0 0-1.695 0 3.39 3.39 0 0 0 2.542 3.268v.97a.847.847 0 1 0 1.695 0v-.964a3.381 3.381 0 0 0-.847-6.658 1.693 1.693 0 0 1 0-3.387z" transform="translate(10.162 26.253)"/><path id="Path-2" data-name="Path" class="cls-1" d="M5.929 0H.847a.847.847 0 0 0 0 1.695h5.082a.847.847 0 0 0 0-1.695z" transform="translate(10.162 21.172)"/><path id="Path-3" data-name="Path" class="cls-1" d="M5.929 0H.847a.847.847 0 0 0 0 1.695h5.082a.847.847 0 0 0 0-1.695z" transform="translate(10.162 44.884)"/><path id="Shape" class="cls-1" d="M19.478 50.812H7.622A7.642 7.642 0 0 1 0 43.191V16.55a4.286 4.286 0 0 1 1.075-2.84l9.258-10.492a4.289 4.289 0 0 1 6.436 0l.683.776a21.55 21.55 0 0 1 2.2-1.485A17.247 17.247 0 0 1 27.976 0C30.5 0 32.4.87 33.308 2.45c.956 1.653.7 3.823-.709 6.111a14.283 14.283 0 0 1-2.017 2.512l12.435 21.532a7.62 7.62 0 0 1-2.8 10.412l-10.262 5.929a7.686 7.686 0 0 1-1.846.756.847.847 0 1 1-.437-1.637 5.9 5.9 0 0 0 1.439-.585l10.272-5.928a5.935 5.935 0 0 0 2.16-8.1L29.3 12.246a20.767 20.767 0 0 1-2.873 2h-.007a4.263 4.263 0 0 1 .677 2.3v26.645a7.64 7.64 0 0 1-7.619 7.621zM13.55 3.46a2.594 2.594 0 0 0-1.947.88L2.345 14.831a2.6 2.6 0 0 0-.651 1.719v26.641a5.945 5.945 0 0 0 5.928 5.928h11.856a5.943 5.943 0 0 0 5.928-5.928V16.55a2.6 2.6 0 0 0-.5-1.518 16.435 16.435 0 0 1-6.8 1.711 9.865 9.865 0 0 1-1-.054A4.228 4.228 0 0 1 9.317 14.4a.847.847 0 1 1 1.693 0 2.529 2.529 0 0 0 4.234 1.885 4.6 4.6 0 0 1-2.47-1.985 4.719 4.719 0 0 1-.414-3.439.832.832 0 0 1 .815-.652.846.846 0 0 1 .1.006.82.82 0 0 1 .272-.055 4.246 4.246 0 0 1 4.238 4.24 4.176 4.176 0 0 1-.066.643h.061a14.1 14.1 0 0 0 5.977-1.34L15.5 4.34a2.6 2.6 0 0 0-1.95-.88zm.368 8.434a2.713 2.713 0 0 0 .324 1.563 3.062 3.062 0 0 0 1.812 1.31 2.658 2.658 0 0 0 .037-.369 2.526 2.526 0 0 0-2.173-2.504zM28.026 1.7A15.834 15.834 0 0 0 20.5 3.981a19.32 19.32 0 0 0-1.922 1.283l6.749 7.65.1-.053c.053-.028.1-.056.157-.086a18.816 18.816 0 0 0 2.86-2.022l-.216-.373A2.6 2.6 0 0 0 26.8 9.216L23.487 8.1a.847.847 0 0 1 .54-1.605l3.317 1.122a4.293 4.293 0 0 1 2.349 1.923l.008.016a12.16 12.16 0 0 0 1.457-1.878c1.07-1.731 1.313-3.284.684-4.373-.598-1.038-1.953-1.605-3.816-1.605z"/><path id="Path-4" data-name="Path" class="cls-1" d="M.114 4.661a.848.848 0 0 0 1.157.31l5.864-3.388a.843.843 0 0 0 .431-.734.866.866 0 0 0-.419-.737.849.849 0 0 0-.851 0L.424 3.5a.847.847 0 0 0-.31 1.157z" transform="translate(28.794 29.474)"/><path id="Path-5" data-name="Path" class="cls-1" d="M.114 5.5a.846.846 0 0 0 1.156.311L8.6 1.58A.836.836 0 0 0 8.9.424.845.845 0 0 0 7.752.113L.424 4.347A.848.848 0 0 0 .114 5.5z" transform="translate(29.866 33.875)"/><path id="Path-6" data-name="Path" class="cls-1" d="M.847 3.39a.854.854 0 0 0 .423-.113L4.2 1.582A.846.846 0 1 0 3.357.116L.423 1.81a.847.847 0 0 0 .424 1.58z" transform="translate(29.611 25.808)"/></svg>