<svg xmlns="http://www.w3.org/2000/svg" width="50.812" height="43.666"><path d="M17.268 43.666A17.288 17.288 0 0 1 0 26.4V11.512a1.243 1.243 0 0 1 1.242-1.242h.2a8.2 8.2 0 0 0 8.184-8.187v-.844A1.242 1.242 0 0 1 10.868 0h12.8a1.241 1.241 0 0 1 1.24 1.239v1.075a8.16 8.16 0 0 0 7.879 8.186 4.2 4.2 0 0 0 .36-1.707V6.45a3.473 3.473 0 1 1 6.947 0l.006 8.833H46a3.03 3.03 0 0 1 3.029 2.87 2.956 2.956 0 0 1-.449 1.686 2.975 2.975 0 0 1 1.4.82 2.943 2.943 0 0 1 .832 2.175 3.017 3.017 0 0 1-2.246 2.766 2.967 2.967 0 0 1 .457 1.7A3.03 3.03 0 0 1 46 30.17h-.354a2.407 2.407 0 0 1 .208.945 2.431 2.431 0 0 1-.709 1.762 2.562 2.562 0 0 1-1.817.766H32.947a17.256 17.256 0 0 1-15.679 10.023zM11.115 1.487v.6a9.7 9.7 0 0 1-9.626 9.673V26.4a15.782 15.782 0 0 0 29.8 7.245H28.27a5.705 5.705 0 0 1-2.814-.743l-.795-.45a2.216 2.216 0 0 1-1.786.9h-4.366a2.005 2.005 0 0 1-.545-.078v6.677a.745.745 0 0 1-.744.744A14.258 14.258 0 0 1 2.977 26.447V13.4a.746.746 0 0 1 .745-.744 8.676 8.676 0 0 0 8.668-8.669v-.316a.745.745 0 0 1 .743-.744h4.086a.745.745 0 0 1 .744.744v7.294a.744.744 0 0 1-1.489 0v-6.55h-2.606a10.146 10.146 0 0 1-9.4 9.7v12.332a12.759 12.759 0 0 0 12.007 12.732v-7.323h-3.524a1.937 1.937 0 0 1-1.934-1.936v-12.8a1.937 1.937 0 0 1 1.934-1.934H16.6a2.24 2.24 0 0 1 2.107-1.486h4.168a2.249 2.249 0 0 1 2.138 1.588h.915a2.235 2.235 0 0 0 1.2-.35l4.065-2.587a4.335 4.335 0 0 0 .581-.446 9.69 9.69 0 0 1-8.352-9.586v-.832zm13.249 27.077a.746.746 0 0 1 .744.745v1.684l1.082.612a4.208 4.208 0 0 0 2.08.549h15.053a1.064 1.064 0 0 0 .753-.318.956.956 0 0 0 .285-.693 1 1 0 0 0-.992-.973H41.98a.744.744 0 1 1 0-1.489H46a1.53 1.53 0 0 0 1.541-1.435 1.486 1.486 0 0 0-1.492-1.546H41.98a.744.744 0 1 1 0-1.489h5.8a1.528 1.528 0 0 0 1.541-1.434 1.486 1.486 0 0 0-1.487-1.543H41.98a.745.745 0 0 1 0-1.49h4.069a1.485 1.485 0 0 0 1.487-1.544A1.529 1.529 0 0 0 46 16.772h-6.148a1.243 1.243 0 0 1-1.242-1.239V6.451a1.985 1.985 0 1 0-3.969 0v2.337a5.679 5.679 0 0 1-2.649 4.812l-4.065 2.59a3.73 3.73 0 0 1-2 .582h-.82v9.064a.744.744 0 0 1-1.489 0v-9.908a.745.745 0 0 0-.744-.744h-4.167a.745.745 0 0 0-.744.744v15.383a.546.546 0 0 0 .545.545h4.367a.745.745 0 0 0 .744-.744v-1.8a.746.746 0 0 1 .745-.748zM12.951 16.672a.446.446 0 0 0-.446.446v12.8a.447.447 0 0 0 .446.447h3.524v-13.7z" style="fill:#f4a947"/></svg>